<?xml version="1.0" encoding="UTF-8" standalone="no"?>
<!DOCTYPE svg PUBLIC "-//W3C//DTD SVG 1.1//EN" "http://www.w3.org/Graphics/SVG/1.1/DTD/svg11.dtd">
<svg version="1.1" xmlns="http://www.w3.org/2000/svg" xmlns:xlink="http://www.w3.org/1999/xlink" preserveAspectRatio="xMidYMid meet" viewBox="0 0 450 450" width="450" height="450"><defs><path d="M297.02 154L223.98 256.16L152.98 154L297.02 154Z" id="a2vcPRnIfB"></path><path d="M247.98 301.11L239.81 154L217.34 154L202.02 301.11L226.02 311.32L247.98 301.11Z" id="a1kq4Lich"></path><path d="M234.24 7.46L237.26 7.89L240.23 8.44L243.16 9.1L246.04 9.87L248.88 10.76L251.67 11.75L254.41 12.84L257.1 14.04L259.73 15.34L262.3 16.74L264.81 18.23L267.25 19.82L269.63 21.49L271.94 23.26L274.18 25.11L276.35 27.04L278.44 29.05L280.46 31.14L282.39 33.31L284.24 35.55L286 37.86L287.68 40.24L289.26 42.69L290.75 45.2L292.15 47.77L293.45 50.4L294.65 53.08L295.75 55.82L296.74 58.61L297.62 61.45L298.4 64.34L299.06 67.27L299.6 70.24L300.03 73.25L300.34 76.3L300.53 79.38L300.59 82.49L300.53 85.61L300.34 88.69L300.03 91.74L299.6 94.75L299.06 97.72L298.4 100.65L297.62 103.54L296.74 106.38L295.75 109.17L294.65 111.91L293.45 114.59L292.15 117.22L290.75 119.79L289.26 122.3L287.68 124.75L286 127.13L284.24 129.44L282.39 131.68L280.46 133.85L278.44 135.94L276.35 137.95L274.18 139.88L271.94 141.73L269.63 143.49L267.25 145.17L264.81 146.76L262.3 148.25L261.11 148.89L373.64 148.89L307.23 443.1L148.89 443.1L76.36 148.89L188.89 148.89L187.7 148.25L185.19 146.76L182.75 145.17L180.37 143.49L178.06 141.73L175.82 139.88L173.65 137.95L171.56 135.94L169.54 133.85L167.61 131.68L165.76 129.44L164 127.13L162.32 124.75L160.74 122.3L159.25 119.79L157.85 117.22L156.55 114.59L155.35 111.91L154.25 109.17L153.26 106.38L152.38 103.54L151.6 100.65L150.94 97.72L150.4 94.75L149.97 91.74L149.66 88.69L149.47 85.61L149.41 82.49L149.47 79.38L149.66 76.3L149.97 73.25L150.4 70.24L150.94 67.27L151.6 64.34L152.38 61.45L153.26 58.61L154.25 55.82L155.35 53.08L156.55 50.4L157.85 47.77L159.25 45.2L160.74 42.69L162.32 40.24L164 37.86L165.76 35.55L167.61 33.31L169.54 31.14L171.56 29.05L173.65 27.04L175.82 25.11L178.06 23.26L180.37 21.49L182.75 19.82L185.19 18.23L187.7 16.74L190.27 15.34L192.9 14.04L195.59 12.84L198.33 11.75L201.12 10.76L203.96 9.87L206.84 9.1L209.77 8.44L212.74 7.89L215.76 7.46L218.8 7.15L221.89 6.96L225 6.9L228.11 6.96L231.2 7.15L231.2 7.15L234.24 7.46Z" id="g7vDahKf1x"></path><path d="M284.08 154L224.16 237.81L165.92 154L284.08 154Z" id="cIBAzK2Hu"></path><path d="M253.35 333.65L243.27 152.18L215.55 152.18L196.65 333.65L226.26 346.25L253.35 333.65Z" id="e1aVLohytP"></path></defs><g><g><g><use xlink:href="#a2vcPRnIfB" opacity="1" fill="#ffffff" fill-opacity="1"></use><g><use xlink:href="#a2vcPRnIfB" opacity="1" fill-opacity="0" stroke="#ffffff" stroke-width="1" stroke-opacity="1"></use></g></g><g><use xlink:href="#a1kq4Lich" opacity="1" fill="#272727" fill-opacity="1"></use><g><use xlink:href="#a1kq4Lich" opacity="1" fill-opacity="0" stroke="#272727" stroke-width="1" stroke-opacity="1"></use></g></g><g><use xlink:href="#g7vDahKf1x" opacity="1" fill="#1e1e1e" fill-opacity="1"></use><g><use xlink:href="#g7vDahKf1x" opacity="1" fill-opacity="0" stroke="#272727" stroke-width="1" stroke-opacity="1"></use></g></g><g><use xlink:href="#cIBAzK2Hu" opacity="1" fill="#ffffff" fill-opacity="1"></use><g><use xlink:href="#cIBAzK2Hu" opacity="1" fill-opacity="0" stroke="#ffffff" stroke-width="1" stroke-opacity="1"></use></g></g><g><use xlink:href="#e1aVLohytP" opacity="1" fill="#0c0c0c" fill-opacity="1"></use><g><use xlink:href="#e1aVLohytP" opacity="1" fill-opacity="0" stroke="#272727" stroke-width="1" stroke-opacity="1"></use></g></g></g></g></svg>