<?xml version="1.0" encoding="UTF-8" standalone="no"?>
<!DOCTYPE svg PUBLIC "-//W3C//DTD SVG 1.1//EN" "http://www.w3.org/Graphics/SVG/1.1/DTD/svg11.dtd">
<svg version="1.1" xmlns="http://www.w3.org/2000/svg" xmlns:xlink="http://www.w3.org/1999/xlink" preserveAspectRatio="xMidYMid meet" viewBox="0 0 450 350" width="450" height="350"><defs><path d="M153.2 10.23L154.78 10.45L156.34 10.74L157.87 11.08L159.38 11.49L160.87 11.95L162.33 12.47L163.76 13.04L165.17 13.67L166.54 14.35L167.89 15.08L169.2 15.86L170.48 16.69L171.73 17.57L172.94 18.5L174.11 19.46L175.25 20.47L176.34 21.53L177.4 22.62L178.41 23.76L179.37 24.93L180.3 26.14L181.18 27.39L182.01 28.67L182.79 29.98L183.52 31.33L184.2 32.7L184.83 34.11L185.4 35.54L185.92 37L186.38 38.49L186.79 40L187.13 41.53L187.42 43.09L187.64 44.67L187.81 46.26L187.9 47.88L187.94 49.51L187.9 51.14L187.81 52.75L187.64 54.34L187.42 55.92L187.13 57.48L186.79 59.01L186.38 60.52L185.92 62.01L185.4 63.47L184.83 64.9L184.2 66.31L183.52 67.69L182.79 69.03L182.01 70.34L181.18 71.63L180.3 72.87L179.37 74.08L178.41 75.25L177.4 76.39L176.34 77.48L175.25 78.54L174.11 79.55L172.94 80.52L171.73 81.44L170.48 82.32L169.2 83.15L167.89 83.93L167.27 84.27L226.17 84.27L191.41 238.28L108.52 238.28L70.55 84.27L129.46 84.27L128.84 83.93L127.52 83.15L126.24 82.32L125 81.44L123.79 80.52L122.62 79.55L121.48 78.54L120.39 77.48L119.33 76.39L118.32 75.25L117.35 74.08L116.43 72.87L115.55 71.63L114.72 70.34L113.94 69.03L113.21 67.69L112.53 66.31L111.9 64.9L111.33 63.47L110.81 62.01L110.35 60.52L109.94 59.01L109.59 57.48L109.31 55.92L109.08 54.34L108.92 52.75L108.82 51.14L108.79 49.51L108.82 47.88L108.92 46.26L109.08 44.67L109.31 43.09L109.59 41.53L109.94 40L110.35 38.49L110.81 37L111.33 35.54L111.9 34.11L112.53 32.7L113.21 31.33L113.94 29.98L114.72 28.67L115.55 27.39L116.43 26.14L117.35 24.93L118.32 23.76L119.33 22.62L120.39 21.53L121.48 20.47L122.62 19.46L123.79 18.5L125 17.57L126.24 16.69L127.52 15.86L128.84 15.08L130.18 14.35L131.56 13.67L132.97 13.04L134.4 12.47L135.86 11.95L137.35 11.49L138.86 11.08L140.39 10.74L141.95 10.45L143.52 10.23L145.12 10.06L146.73 9.97L148.36 9.93L149.99 9.97L151.61 10.06L151.61 10.06L153.2 10.23Z" id="b3wrlZncdh"></path><path d="M186.07 86.94L147.83 140.42L110.66 86.94L186.07 86.94Z" id="a26YH2obnJ"></path><path d="M160.4 163.95L156.12 86.94L144.35 86.94L136.33 163.95L148.9 169.3L160.4 163.95Z" id="bhpqIRuwT"></path><path d="M256.15 270.55L251.88 193.54L240.11 193.54L232.09 270.55L244.66 275.9L256.15 270.55Z" id="b57DWUz3HL"></path><path d="M140.8 165.52L94.2 230.71L48.89 165.52L140.8 165.52Z" id="b3lLAcWujB"></path><path d="M109.51 259.39L104.3 165.52L89.96 165.52L80.18 259.39L95.5 265.91L109.51 259.39Z" id="b1rRgAoNxP"></path><path d="M364.47 162.01L366.05 162.24L367.61 162.53L369.14 162.87L370.65 163.28L372.14 163.74L373.6 164.26L375.03 164.83L376.44 165.46L377.81 166.14L379.16 166.87L380.47 167.65L381.75 168.48L383 169.36L384.21 170.28L385.38 171.25L386.52 172.26L387.61 173.32L388.66 174.41L389.68 175.55L390.64 176.72L391.57 177.93L392.44 179.17L393.27 180.45L394.06 181.77L394.79 183.11L395.47 184.49L396.1 185.9L396.67 187.33L397.19 188.79L397.65 190.28L398.06 191.79L398.4 193.32L398.69 194.88L398.91 196.45L399.08 198.05L399.17 199.66L399.21 201.29L399.17 202.92L399.08 204.54L398.91 206.13L398.69 207.71L398.4 209.27L398.06 210.8L397.65 212.31L397.19 213.8L396.67 215.26L396.1 216.69L395.47 218.1L394.79 219.47L394.06 220.82L393.27 222.13L392.44 223.41L391.57 224.66L390.64 225.87L389.68 227.04L388.66 228.18L387.61 229.27L386.52 230.33L385.38 231.34L384.21 232.3L383 233.23L381.75 234.11L380.47 234.94L379.16 235.72L378.54 236.05L437.44 236.05L411.73 350L309.91 350L281.82 236.05L340.73 236.05L340.11 235.72L338.79 234.94L337.51 234.11L336.27 233.23L335.06 232.3L333.89 231.34L332.75 230.33L331.66 229.27L330.6 228.18L329.59 227.04L328.62 225.87L327.7 224.66L326.82 223.41L325.99 222.13L325.21 220.82L324.48 219.47L323.8 218.1L323.17 216.69L322.6 215.26L322.08 213.8L321.62 212.31L321.21 210.8L320.86 209.27L320.58 207.71L320.35 206.13L320.19 204.54L320.09 202.92L320.06 201.29L320.09 199.66L320.19 198.05L320.35 196.45L320.58 194.88L320.86 193.32L321.21 191.79L321.62 190.28L322.08 188.79L322.6 187.33L323.17 185.9L323.8 184.49L324.48 183.11L325.21 181.77L325.99 180.45L326.82 179.17L327.7 177.93L328.62 176.72L329.59 175.55L330.6 174.41L331.66 173.32L332.75 172.26L333.89 171.25L335.06 170.28L336.27 169.36L337.51 168.48L338.79 167.65L340.11 166.87L341.45 166.14L342.83 165.46L344.24 164.83L345.67 164.26L347.13 163.74L348.62 163.28L350.13 162.87L351.66 162.53L353.22 162.24L354.79 162.01L356.39 161.85L358 161.75L359.63 161.72L361.26 161.75L362.88 161.85L362.88 161.85L364.47 162.01Z" id="b23EqYDE4V"></path><path d="M403.25 234.72L365.01 288.2L327.85 234.72L403.25 234.72Z" id="a6UduGm1HC"></path><path d="M377.58 311.73L373.3 234.72L361.54 234.72L353.52 311.73L366.08 317.07L377.58 311.73Z" id="c1gL9XEXlG"></path><path d="M100.75 72.01L102.67 72.28L104.56 72.63L106.43 73.05L108.28 73.55L110.09 74.11L111.87 74.74L113.62 75.44L115.33 76.21L117.01 77.04L118.65 77.93L120.25 78.88L121.81 79.89L123.33 80.96L124.8 82.09L126.23 83.27L127.62 84.5L128.95 85.78L130.24 87.12L131.47 88.5L132.65 89.93L133.77 91.41L134.84 92.93L135.85 94.49L136.81 96.09L137.7 97.73L138.53 99.41L139.29 101.12L139.99 102.87L140.63 104.65L141.19 106.46L141.68 108.3L142.11 110.17L142.45 112.07L142.73 113.99L142.93 115.93L143.05 117.9L143.09 119.89L143.05 121.88L142.93 123.84L142.73 125.79L142.45 127.71L142.11 129.6L141.68 131.47L141.19 133.32L140.63 135.13L139.99 136.91L139.29 138.66L138.53 140.37L137.7 142.05L136.81 143.69L135.85 145.29L134.84 146.85L133.77 148.37L132.65 149.84L131.47 151.27L130.24 152.66L128.95 153.99L127.62 155.28L126.23 156.51L124.8 157.69L123.33 158.81L121.81 159.88L120.25 160.9L118.65 161.85L117.89 162.26L189.7 162.26L147.32 350L46.28 350L0 162.26L71.81 162.26L71.05 161.85L69.45 160.9L67.88 159.88L66.37 158.81L64.89 157.69L63.46 156.51L62.08 155.28L60.74 153.99L59.46 152.66L58.23 151.27L57.05 149.84L55.92 148.37L54.85 146.85L53.84 145.29L52.89 143.69L52 142.05L51.17 140.37L50.4 138.66L49.7 136.91L49.07 135.13L48.51 133.32L48.01 131.47L47.59 129.6L47.24 127.71L46.97 125.79L46.77 123.84L46.65 121.88L46.61 119.89L46.65 117.9L46.77 115.93L46.97 113.99L47.24 112.07L47.59 110.17L48.01 108.3L48.51 106.46L49.07 104.65L49.7 102.87L50.4 101.12L51.17 99.41L52 97.73L52.89 96.09L53.84 94.49L54.85 92.93L55.92 91.41L57.05 89.93L58.23 88.5L59.46 87.12L60.74 85.78L62.08 84.5L63.46 83.27L64.89 82.09L66.37 80.96L67.88 79.89L69.45 78.88L71.05 77.93L72.69 77.04L74.36 76.21L76.08 75.44L77.83 74.74L79.61 74.11L81.42 73.55L83.26 73.05L85.13 72.63L87.03 72.28L88.95 72.01L90.89 71.81L92.86 71.69L94.85 71.65L96.83 71.69L98.8 71.81L98.8 71.81L100.75 72.01Z" id="a2aoIEExWO"></path><path d="M243.05 120.84L244.62 121.06L246.18 121.35L247.71 121.69L249.22 122.1L250.71 122.56L252.17 123.08L253.6 123.65L255.01 124.28L256.39 124.96L257.73 125.69L259.05 126.48L260.33 127.3L261.57 128.18L262.78 129.11L263.95 130.07L265.09 131.09L266.18 132.14L267.24 133.23L268.25 134.37L269.22 135.54L270.14 136.75L271.02 138L271.85 139.28L272.63 140.59L273.36 141.94L274.04 143.31L274.67 144.72L275.24 146.15L275.76 147.61L276.22 149.1L276.63 150.61L276.98 152.14L277.26 153.7L277.49 155.28L277.65 156.87L277.75 158.49L277.78 160.12L277.75 161.75L277.65 163.36L277.49 164.96L277.26 166.53L276.98 168.09L276.63 169.62L276.22 171.13L275.76 172.62L275.24 174.08L274.67 175.51L274.04 176.92L273.36 178.3L272.63 179.64L271.85 180.96L271.02 182.24L270.14 183.48L269.22 184.69L268.25 185.86L267.24 187L266.18 188.09L265.09 189.15L263.95 190.16L262.78 191.13L261.57 192.05L260.33 192.93L259.05 193.76L257.73 194.54L257.11 194.88L316.02 194.88L281.26 348.89L198.37 348.89L160.4 194.88L219.3 194.88L218.68 194.54L217.37 193.76L216.09 192.93L214.84 192.05L213.63 191.13L212.46 190.16L211.32 189.15L210.23 188.09L209.18 187L208.16 185.86L207.2 184.69L206.27 183.48L205.4 182.24L204.57 180.96L203.78 179.64L203.05 178.3L202.37 176.92L201.75 175.51L201.17 174.08L200.65 172.62L200.19 171.13L199.78 169.62L199.44 168.09L199.15 166.53L198.93 164.96L198.76 163.36L198.67 161.75L198.63 160.12L198.67 158.49L198.76 156.87L198.93 155.28L199.15 153.7L199.44 152.14L199.78 150.61L200.19 149.1L200.65 147.61L201.17 146.15L201.75 144.72L202.37 143.31L203.05 141.94L203.78 140.59L204.57 139.28L205.4 138L206.27 136.75L207.2 135.54L208.16 134.37L209.18 133.23L210.23 132.14L211.32 131.09L212.46 130.07L213.63 129.11L214.84 128.18L216.09 127.3L217.37 126.48L218.68 125.69L220.03 124.96L221.4 124.28L222.81 123.65L224.24 123.08L225.7 122.56L227.19 122.1L228.7 121.69L230.24 121.35L231.79 121.06L233.37 120.84L234.96 120.67L236.58 120.58L238.21 120.54L239.84 120.58L241.45 120.67L241.45 120.67L243.05 120.84Z" id="m19HtLfxGz"></path><path d="M281.82 193.54L243.59 247.02L206.42 193.54L281.82 193.54Z" id="bUU3wOEdi"></path><path d="M250.24 270.55L245.96 193.54L234.2 193.54L226.17 270.55L238.74 275.9L250.24 270.55Z" id="cw8oYom3h"></path><path d="M132.55 165.52L94.31 219L57.15 165.52L132.55 165.52Z" id="ct1d3ktSy"></path><path d="M112.94 280.15L106.51 164.36L88.82 164.36L76.75 280.15L95.65 288.2L112.94 280.15Z" id="d1N7AhxHBM"></path></defs><g><g><g><use xlink:href="#b3wrlZncdh" opacity="1" fill="#272727" fill-opacity="1"></use><g><use xlink:href="#b3wrlZncdh" opacity="1" fill-opacity="0" stroke="#272727" stroke-width="1" stroke-opacity="1"></use></g></g><g><use xlink:href="#a26YH2obnJ" opacity="1" fill="#ffffff" fill-opacity="1"></use><g><use xlink:href="#a26YH2obnJ" opacity="1" fill-opacity="0" stroke="#ffffff" stroke-width="1" stroke-opacity="1"></use></g></g><g><use xlink:href="#bhpqIRuwT" opacity="1" fill="#1a1a1a" fill-opacity="1"></use><g><use xlink:href="#bhpqIRuwT" opacity="1" fill-opacity="0" stroke="#272727" stroke-width="1" stroke-opacity="1"></use></g></g><g><use xlink:href="#b57DWUz3HL" opacity="1" fill="#1a1a1a" fill-opacity="1"></use><g><use xlink:href="#b57DWUz3HL" opacity="1" fill-opacity="0" stroke="#272727" stroke-width="1" stroke-opacity="1"></use></g></g><g><use xlink:href="#b3lLAcWujB" opacity="1" fill="#ffffff" fill-opacity="1"></use><g><use xlink:href="#b3lLAcWujB" opacity="1" fill-opacity="0" stroke="#ffffff" stroke-width="1" stroke-opacity="1"></use></g></g><g><use xlink:href="#b1rRgAoNxP" opacity="1" fill="#272727" fill-opacity="1"></use><g><use xlink:href="#b1rRgAoNxP" opacity="1" fill-opacity="0" stroke="#272727" stroke-width="1" stroke-opacity="1"></use></g></g><g><use xlink:href="#b23EqYDE4V" opacity="1" fill="#0c0c0c" fill-opacity="1"></use><g><use xlink:href="#b23EqYDE4V" opacity="1" fill-opacity="0" stroke="#272727" stroke-width="1" stroke-opacity="1"></use></g></g><g><use xlink:href="#a6UduGm1HC" opacity="1" fill="#ffffff" fill-opacity="1"></use><g><use xlink:href="#a6UduGm1HC" opacity="1" fill-opacity="0" stroke="#ffffff" stroke-width="1" stroke-opacity="1"></use></g></g><g><use xlink:href="#c1gL9XEXlG" opacity="1" fill="#0c0c0c" fill-opacity="1"></use><g><use xlink:href="#c1gL9XEXlG" opacity="1" fill-opacity="0" stroke="#0c0c0c" stroke-width="1" stroke-opacity="1"></use></g></g><g><use xlink:href="#a2aoIEExWO" opacity="1" fill="#1e1e1e" fill-opacity="1"></use><g><use xlink:href="#a2aoIEExWO" opacity="1" fill-opacity="0" stroke="#272727" stroke-width="1" stroke-opacity="1"></use></g></g><g><use xlink:href="#m19HtLfxGz" opacity="1" fill="#121212" fill-opacity="1"></use><g><use xlink:href="#m19HtLfxGz" opacity="1" fill-opacity="0" stroke="#272727" stroke-width="1" stroke-opacity="1"></use></g></g><g><use xlink:href="#bUU3wOEdi" opacity="1" fill="#ffffff" fill-opacity="1"></use><g><use xlink:href="#bUU3wOEdi" opacity="1" fill-opacity="0" stroke="#ffffff" stroke-width="1" stroke-opacity="1"></use></g></g><g><use xlink:href="#cw8oYom3h" opacity="1" fill="#0c0c0c" fill-opacity="1"></use><g><use xlink:href="#cw8oYom3h" opacity="1" fill-opacity="0" stroke="#0c0c0c" stroke-width="1" stroke-opacity="1"></use></g></g><g><use xlink:href="#ct1d3ktSy" opacity="1" fill="#ffffff" fill-opacity="1"></use><g><use xlink:href="#ct1d3ktSy" opacity="1" fill-opacity="0" stroke="#ffffff" stroke-width="1" stroke-opacity="1"></use></g></g><g><use xlink:href="#d1N7AhxHBM" opacity="1" fill="#0c0c0c" fill-opacity="1"></use><g><use xlink:href="#d1N7AhxHBM" opacity="1" fill-opacity="0" stroke="#272727" stroke-width="1" stroke-opacity="1"></use></g></g></g></g></svg>